<?xml version="1.0" standalone="no"?><!DOCTYPE svg PUBLIC "-//W3C//DTD SVG 1.1//EN" "http://www.w3.org/Graphics/SVG/1.1/DTD/svg11.dtd"><svg t="1702282476949" class="icon" viewBox="0 0 1024 1024" version="1.1" xmlns="http://www.w3.org/2000/svg" p-id="7252" xmlns:xlink="http://www.w3.org/1999/xlink" width="200" height="200"><path d="M512 938.666667C277.333333 938.666667 85.333333 746.666667 85.333333 512S277.333333 85.333333 512 85.333333s426.666667 192 426.666667 426.666667-192 426.666667-426.666667 426.666667z m0-789.333334c-200.533333 0-362.666667 162.133333-362.666667 362.666667s162.133333 362.666667 362.666667 362.666667 362.666667-162.133333 362.666667-362.666667-162.133333-362.666667-362.666667-362.666667z" fill="#4D4D4D" p-id="7253"></path><path d="M507.733333 516.266667m-34.133333 0a34.133333 34.133333 0 1 0 68.266667 0 34.133333 34.133333 0 1 0-68.266667 0Z" fill="#4D4D4D" p-id="7254"></path><path d="M426.666667 537.6l-102.4 140.8 149.333333-89.6c-21.333333-4.266667-38.4-25.6-46.933333-51.2z" fill="#4D4D4D" p-id="7255"></path><path d="M264.533333 733.866667l170.666667-234.666667 8.533333 34.133333c4.266667 21.333333 17.066667 34.133333 38.4 42.666667l29.866667 12.8-247.466667 145.066667z m157.866667-162.133334L384 627.2l55.466667-34.133333c-4.266667-8.533333-12.8-12.8-17.066667-21.333334z" fill="#4D4D4D" p-id="7256"></path><path d="M584.533333 494.933333l102.4-140.8-149.333333 89.6c21.333333 8.533333 38.4 25.6 46.933333 51.2z" fill="#4D4D4D" p-id="7257"></path><path d="M576 529.066667l-8.533333-29.866667c-4.266667-21.333333-21.333333-34.133333-38.4-42.666667l-29.866667-12.8L746.666667 298.666667l-170.666667 230.4z m-8.533333-85.333334c8.533333 4.266667 12.8 12.8 17.066666 21.333334l38.4-55.466667-55.466666 34.133333z" fill="#4D4D4D" p-id="7258"></path></svg>