<?xml version="1.0" standalone="no"?><!DOCTYPE svg PUBLIC "-//W3C//DTD SVG 1.1//EN" "http://www.w3.org/Graphics/SVG/1.1/DTD/svg11.dtd"><svg t="1702282505424" class="icon" viewBox="0 0 1024 1024" version="1.1" xmlns="http://www.w3.org/2000/svg" p-id="8261" xmlns:xlink="http://www.w3.org/1999/xlink" width="200" height="200"><path d="M358.953 786.859c0 51.445-41.708 93.153-93.153 93.153H143.014c-51.445 0-93.153-41.708-93.153-93.153v-297.49c0-51.446 41.708-93.153 93.153-93.153H265.8c51.445 0 93.153 41.707 93.153 93.153v297.49z m-53.756-297.49c0-21.76-17.638-39.398-39.397-39.398H143.014c-21.76 0-39.398 17.639-39.398 39.398v297.49c0 21.76 17.64 39.398 39.398 39.398H265.8c21.76 0 39.397-17.638 39.397-39.398v-297.49z" p-id="8262" fill="#707070"></path><path d="M224.565 762.423c0 12.991-10.532 23.517-23.518 23.517h-6.719c-12.985 0-23.517-10.526-23.517-23.517v-6.719c0-12.992 10.532-23.517 23.517-23.517h6.72c12.985 0 23.517 10.525 23.517 23.517v6.72zM561.545 880.484c-66.878 0-138.732-8.491-163.09-109.859-0.486-2.047 0.814-4.16 0.814-6.273v-339.71c0-3.754-0.761-7.468 0.761-10.894l4.548-12.022c7.494-23.202 29.338-58.584 64.601-113.35 24.11-37.468 48.847-76.223 56.563-95.712 13.098-33.151 13.046-77.851 11.957-92.26-0.762-10.132 4.2-19.83 12.9-25.067 2.245-1.352 22.64-13.176 49.031-13.176 16.811 0 32.325 4.659 46.117 13.833 37.376 24.843 79.228 63.677 71 144.008-2.573 25.328-13.19 49.096-23.44 72.088-6.731 15.105-13.083 29.371-16.652 42.863-0.723 2.742-0.802 10.184-0.84 16.418 29.305 2.532 58.807 4.763 85.343 4.763 16.733 0 30.342-0.13 41.34-0.25 14.226-0.144 24.109-0.223 31.038 0.027 5.065 0.105 9.828 0.262 14.2 0.852 29.135 3.885 55.027 18.899 72.89 42.246 17.86 23.36 25.552 52.272 21.668 81.42-3.767 28.36-18.53 54.136-40.868 71.775a97.598 97.598 0 0 1 10.97 59.476c-3.176 23.873-14.671 45.159-32.651 60.75 0 0.367 0.026 0.709 0.053 1.01 6.037 14.07 8.15 29.58 6.103 44.988-2.94 22.075-14.606 42.193-31.983 55.909 4.62 11.286 6.155 23.886 4.396 36.969-3.57 26.694-22.52 49.215-48.623 58.099-15.79 7.966-35.736 9.632-62.313 9.632-8.964 0-18.964-0.183-30.067-0.394-13.532-0.248-28.767-0.537-45.881-0.537-21.326 0-41.38 0.657-60.777 1.287-17.388 0.566-33.779 1.091-49.108 1.091z m-108.52-119.426c13.437 56.458 43.623 65.672 110.068 65.672 14.79 0 29.804-0.512 46.577-1.063 19.843-0.644 39.949-1.313 62.154-1.313 17.482 0 32.85 0.29 46.667 0.552 10.75 0.196 20.317 0.38 28.978 0.38 7.756 0 31.327 0 38.387-4.055a26.812 26.812 0 0 1 5.71-2.454c5.787-1.706 12.468-7.009 13.478-14.607 0.42-3.135 0.447-7.624-1.786-11.286-5.775-9.448-7.323-22.204-4.185-34.174 2.782-10.603 8.95-19.042 17.402-23.766 8.924-5.015 14.803-13.623 16.14-23.61 0.789-5.958-0.052-11.904-2.44-17.193-6.116-13.479-7.651-45.946 11.246-59.857 9.843-7.193 16.092-17.717 17.692-29.687a43.883 43.883 0 0 0-6.799-29.857c-11.825-18.032-5.341-50.094 12.6-62.378 13.229-9.016 21.994-23.229 24.095-39.03 1.994-14.923-1.942-29.713-11.09-41.669-9.135-11.943-22.39-19.62-37.311-21.615-2.414-0.327-4.803-0.394-7.166-0.394-0.327 0-1.574 0-1.902-0.013-6.287-0.25-15.63-0.145-28.504 0-11.143 0.105-24.923 0.25-41.879 0.25-34.162 0-71.42-3.308-107.444-6.497l-8.164-0.722a26.874 26.874 0 0 1-18.439-9.738 26.902 26.902 0 0 1-5.92-20c0.762-6.785 0.802-14.109 0.854-21.195 0.079-10.853 0.144-21.09 2.638-30.513 4.671-17.69 12.217-34.634 19.529-51.025 8.91-20 17.335-38.886 19.041-55.671 5.525-53.86-20.329-75.856-47.285-93.783-7.087-4.686-16.3-5.604-24.227-4.029-0.17 23.058-2.768 61.748-16.208 95.725-9.659 24.385-34.855 63.56-61.55 105.03-24.069 37.377-54.004 83.914-59.215 101.408-0.328 1.089 0.814 2.165 0.354 3.215l-2.1 8.242v330.72z" p-id="8263" fill="#707070"></path><path d="M680.591 785.94h-0.248c-1.536 0-2.915 2.48-4.173 2.27-7.323-0.117-13.216-4.763-13.216-12.112 0-7.43 6.01-12.783 13.438-12.783 4.383 0 17.705 0.327 17.968 13.531 0.039 1.902-0.394 1.247-1.209 2.9-1.93 5.092-6.837 6.194-12.56 6.194zM582.281 795.127c-32.64 0-60.606-6.522-86.433-36.274-4.87-5.603-4.266-14.082 1.34-18.95 5.603-4.896 14.08-4.28 18.95 1.338 26.537 30.552 53.452 28.675 102.326 25.25 6.181-0.433 12.625-0.879 19.358-1.273 7.205-0.472 13.767 5.21 14.213 12.626 0.434 7.401-5.21 13.766-12.626 14.2-6.628 0.394-12.98 0.84-19.08 1.259-13.39 0.944-26.04 1.824-38.048 1.824z" p-id="8264" fill="#707070"></path></svg>